<?xml version="1.0" encoding="UTF-8"?>
<!-- Generator: Adobe Illustrator 27.5.0, SVG Export Plug-In . SVG Version: 6.00 Build 0)  -->
<svg xmlns="http://www.w3.org/2000/svg" xmlnsXlink="http://www.w3.org/1999/xlink" version="1.1" id="Layer_1" x="0px" y="0px" viewBox="0 0 512 512" style="enable-background:new 0 0 512 512;" xmlSpace="preserve">
<style type="text/css">
	.st0{fill:#D1D7E0;}
	.st1{fill:url(#SVGID_1_);}
</style>
<path class="st0" d="M426.5,66.4v44.3c25.3,9.1,42.2,33,42.3,59.9V320c0,35.3-28.7,64-64,64H106.2c-35.3,0-64-28.7-64-64V170.7  c0.1-26.9,17-50.8,42.3-59.9V66.5c-49.3,10.2-84.9,53.6-85,104.2V320c0.1,58.9,47.8,106.6,106.7,106.7h128v42.7h-64  c-11.8,0-21.3,9.6-21.3,21.3s9.6,21.3,21.3,21.3h170.7c11.8,0,21.3-9.6,21.3-21.3s-9.6-21.3-21.3-21.3h-64v-42.7h128  c58.9-0.1,106.6-47.8,106.7-106.7V170.7C511.4,120.1,475.8,76.7,426.5,66.4z"></path>
<linearGradient id="SVGID_1_" gradientUnits="userSpaceOnUse" x1="84.5" y1="138.6377" x2="426.5" y2="138.6377">
	<stop offset="0" style="stop-color:#1A57FE"></stop>
	<stop offset="1" style="stop-color:#FF33E1"></stop>
</linearGradient>
<path class="st1" d="M321.6,2.2c-1.4,0.3-2.8,0.7-4.2,1.1l-36.8,10.5c-9.3,2.7-17.9,7.5-25.1,14c-7.2-6.5-15.8-11.3-25.1-14  L193.6,3.3c-45.3-13-92.5,13.3-105.5,58.6c-0.4,1.4-0.7,2.7-1.1,4.1c-0.9,0.2-1.7,0.4-2.6,0.5v44.2c0.1,0,0.2-0.1,0.3-0.1v58.8  c0.1,38.1,25.3,71.5,61.9,82l73.6,21.1c23,6.6,47.4,6.6,70.4,0l73.6-21.1c36.5-10.6,61.7-44,61.8-82v-58.8c0.1,0,0.2,0.1,0.3,0.1  V66.4c-0.8-0.2-1.6-0.4-2.5-0.5C413.4,20,367.5-8.5,321.6,2.2z M234.2,232l-75.7-21.6c-18.3-5.3-30.9-22-30.9-41v-84  c0-13.4,6.3-26.1,17.1-34.1c10.7-8,24.5-10.6,37.3-6.9l36.8,10.5c9.2,2.6,15.5,11,15.5,20.5V232z M383.5,169.3  c-0.1,19-12.7,35.7-30.9,41L276.8,232V75.3c0-9.5,6.3-17.9,15.5-20.5l36.8-10.5c22.7-6.5,46.3,6.6,52.8,29.3  c1.1,3.8,1.6,7.8,1.6,11.7V169.3z"></path>
</svg>
