<?xml version="1.0" encoding="UTF-8"?>
<!-- Generator: Adobe Illustrator 27.5.0, SVG Export Plug-In . SVG Version: 6.00 Build 0)  -->
<svg xmlns="http://www.w3.org/2000/svg" xmlnsXlink="http://www.w3.org/1999/xlink" version="1.1" id="Layer_1" x="0px" y="0px" viewBox="0 0 512 512" style="enable-background:new 0 0 512 512;" xmlSpace="preserve">
<style type="text/css">
	.st0{fill:#D1D7E0;}
	.st1{fill:url(#SVGID_1_);}
</style>
<path class="st0" d="M256.2,505c-10.2,0-20.5-3.6-28.6-10.9l-80-67.4H85.3C38.2,426.7,0,388.5,0,341.3v-256C0,38.2,38.2,0,85.3,0  h341.3C473.8,0,512,38.2,512,85.3v256c0,47.1-38.2,85.3-85.3,85.3h-60.8l-82.1,67.8C276.1,501.3,266,505,256.2,505L256.2,505z   M85.3,42.7c-23.5,0-42.7,19.2-42.7,42.7v256c0,23.5,19.2,42.7,42.7,42.7h70.2c5.1,0,9.8,1.7,13.7,5.1l86.4,72.7l89-73  c3.8-3.2,8.5-4.9,13.7-4.9h68.5c23.5,0,42.7-19.2,42.7-42.7v-256c0-23.5-19.2-42.7-42.7-42.7H85.3z"></path>
<linearGradient id="SVGID_1_" gradientUnits="userSpaceOnUse" x1="138.5798" y1="215.1467" x2="372.9935" y2="215.1467">
	<stop offset="0" style="stop-color:#1A57FE"></stop>
	<stop offset="1" style="stop-color:#FF33E1"></stop>
</linearGradient>
<path class="st1" d="M192.2,327.5c-4.1,0-8.3-1.3-11.7-3.8c-6.6-4.9-9.4-13.7-6.8-21.5l18.3-58.9l-46.5-37.8  c-6.2-5.3-8.5-13.9-5.8-21.5c2.8-7.7,10.2-12.8,18.3-12.8h58.7l20.7-55.7c2.8-7.7,10.2-12.8,18.3-12.8s15.6,5.1,18.3,12.8l20.7,55.7  h58.7c8.1,0,15.6,5.1,18.3,12.8c2.8,7.7,0.4,16.4-5.8,21.8l-46.3,37.8l19.2,58.2c2.6,7.9,0,16.6-6.6,21.5  c-6.6,5.1-15.6,5.3-22.6,0.9l-53.8-35l-52.9,35.4c-3.2,2.1-7,3.2-10.9,3.2L192.2,327.5z"></path>
</svg>
