<?xml version="1.0" encoding="UTF-8"?>
<!-- Generator: Adobe Illustrator 27.5.0, SVG Export Plug-In . SVG Version: 6.00 Build 0)  -->
<svg xmlns="http://www.w3.org/2000/svg" xmlnsXlink="http://www.w3.org/1999/xlink" version="1.1" id="Layer_1" x="0px" y="0px" viewBox="0 0 512 512" style="enable-background:new 0 0 512 512;" xmlSpace="preserve">
<style type="text/css">
	.st0{fill:#D1D7E0;}
	.st1{fill:url(#SVGID_1_);}
	.st2{fill:url(#SVGID_00000121986122509075708000000001261694488665065880_);}
</style>
<path class="st0" d="M384,170.7c-47.1,0-85.3-38.2-85.3-85.3S336.9,0,384,0s85.3,38.2,85.3,85.3S431.1,170.7,384,170.7z M384,42.7  c-23.6,0-42.7,19.1-42.7,42.7S360.4,128,384,128c23.6,0,42.7-19.1,42.7-42.7S407.6,42.7,384,42.7z M512,320  c-0.1-70.7-57.3-127.9-128-128c-11.8,0-21.3,9.6-21.3,21.3c0,11.8,9.6,21.3,21.3,21.3c47.1,0,85.3,38.2,85.3,85.3  c0,11.8,9.6,21.3,21.3,21.3C502.4,341.3,512,331.8,512,320z M128,170.7c-47.1,0-85.3-38.2-85.3-85.3S80.9,0,128,0  s85.3,38.2,85.3,85.3S175.1,170.7,128,170.7z M128,42.7c-23.6,0-42.7,19.1-42.7,42.7S104.4,128,128,128s42.7-19.1,42.7-42.7  S151.6,42.7,128,42.7z M42.7,320c0-47.1,38.2-85.3,85.3-85.3c11.8,0,21.3-9.6,21.3-21.3c0-11.8-9.6-21.3-21.3-21.3  C57.3,192.1,0.1,249.3,0,320c0,11.8,9.6,21.3,21.3,21.3S42.7,331.8,42.7,320z"></path>
<linearGradient id="SVGID_1_" gradientUnits="userSpaceOnUse" x1="170.6667" y1="256" x2="341.3334" y2="256">
	<stop offset="0" style="stop-color:#1A57FE"></stop>
	<stop offset="1" style="stop-color:#FF33E1"></stop>
</linearGradient>
<path class="st1" d="M256,170.7c-47.1,0-85.3,38.2-85.3,85.3s38.2,85.3,85.3,85.3s85.3-38.2,85.3-85.3S303.1,170.7,256,170.7z   M256,298.7c-23.6,0-42.7-19.1-42.7-42.7s19.1-42.7,42.7-42.7s42.7,19.1,42.7,42.7S279.6,298.7,256,298.7z"></path>
<linearGradient id="SVGID_00000081627110410511451580000007070265205709436302_" gradientUnits="userSpaceOnUse" x1="128" y1="437.3333" x2="384" y2="437.3333">
	<stop offset="0" style="stop-color:#1A57FE"></stop>
	<stop offset="1" style="stop-color:#FF33E1"></stop>
</linearGradient>
<path style="fill:url(#SVGID_00000081627110410511451580000007070265205709436302_);" d="M384,490.7c0-70.7-57.3-128-128-128  s-128,57.3-128,128c0,11.8,9.6,21.3,21.3,21.3s21.3-9.6,21.3-21.3c0-47.1,38.2-85.3,85.3-85.3s85.3,38.2,85.3,85.3  c0,11.8,9.6,21.3,21.3,21.3C374.4,512,384,502.4,384,490.7z"></path>
</svg>
