<?xml version="1.0" encoding="utf-8"?>
<!-- Generator: Adobe Illustrator 27.5.0, SVG Export Plug-In . SVG Version: 6.00 Build 0)  -->
<svg version="1.1" id="Layer_1" xmlns="http://www.w3.org/2000/svg" xmlnsXlink="http://www.w3.org/1999/xlink" x="0px" y="0px"
	 viewBox="0 0 792 215.9" style="enable-background:new 0 0 792 215.9;" xmlSpace="preserve">
<style type="text/css">
	.st0{fill:#FFFFFF;}
</style>
<g>
	<path class="st0" d="M290.5,151.9c-11.5-11.8-17.3-26.1-17.3-43.4s5.8-31.6,17.3-43.4c11.8-11.8,26.3-17.5,43.6-17.5
		c22.4,0,42.2,11.5,51.7,29.8l-25.6,15c-4.6-9.5-14.5-15.5-26.3-15.5c-17.8,0-30.9,13.2-30.9,31.6c0,9,3,16.6,8.8,22.6
		c5.8,5.8,13.2,8.8,22.2,8.8c12,0,21.9-5.8,26.5-15.2l25.9,14.8c-10.2,18.2-29.8,30-52.2,30C316.8,169.4,302.3,163.7,290.5,151.9z"
		/>
	<path class="st0" d="M455.1,169.4c-17.1,0-31.6-5.8-43.4-17.5c-11.8-11.8-17.5-26.3-17.5-43.4s5.8-31.4,17.5-43.2
		c11.8-11.8,26.3-17.8,43.4-17.8c17.1,0,31.6,6,43.4,17.8c11.8,11.8,17.8,26.1,17.8,43.2s-6,31.6-17.8,43.4
		C486.7,163.7,472.2,169.4,455.1,169.4z M455.1,140.3c9,0,16.4-3,22.4-9c6-6,9-13.6,9-22.9s-3-16.9-9-22.9c-6-6-13.4-9-22.4-9
		c-9,0-16.4,3-22.4,9c-5.8,6-8.8,13.6-8.8,22.9s3,16.9,8.8,22.9C438.7,137.3,446.1,140.3,455.1,140.3z"/>
	<path class="st0" d="M624.8,4.6h29.8v161.6h-29.8v-13.6c-8.8,11.3-21.2,16.9-37.4,16.9c-15.5,0-28.9-5.8-39.9-17.5
		c-10.8-11.8-16.4-26.3-16.4-43.4s5.5-31.4,16.4-43.2c11.1-11.8,24.5-17.8,39.9-17.8c16.2,0,28.6,5.5,37.4,16.9V4.6z M592.9,141
		c9.2,0,16.9-3,22.9-9c6-6.2,9-14.1,9-23.5s-3-17.3-9-23.3c-6-6.2-13.6-9.2-22.9-9.2c-9.2,0-16.9,3-23.1,9.2c-6,6-9,13.9-9,23.3
		s3,17.3,9,23.5C576.1,138,583.7,141,592.9,141z"/>
	<path class="st0" d="M757.1,50.8h31.9l-42,115.4c-12,33.2-31.4,47.8-60.9,46.2v-27.7c15.9,0.2,24.7-6.5,30.2-22.2L668.9,50.8h32.6
		l30,77.6L757.1,50.8z"/>
</g>
<path class="st0" d="M184.5,41.8L184.5,41.8c-35.9-6.6-72.6-6.6-108.5,0c-3.1,0.6-45.1,15.4-45.1,15.4l0,0
	c-16.6,5.8-28,21.4-28,39.4v27.7c0,16.9,10.1,31.7,25.1,38.3l102.3,51v-38.1c18.2,0,36.3-1.6,54.3-4.9h0
	c23.6-4.3,40.7-24.9,40.7-48.9V90.7C225.2,66.7,208.1,46.1,184.5,41.8z M204.3,121.7c0,13.9-9.9,25.8-23.6,28.3
	c-16.6,3-33.6,4.6-50.5,4.6s-33.9-1.5-50.5-4.6c-13.7-2.5-23.6-14.4-23.6-28.3V90.7c0-13.9,9.9-25.8,23.6-28.3
	c16.6-3,33.6-4.6,50.5-4.6s33.9,1.5,50.5,4.6c13.7,2.5,23.6,14.4,23.6,28.3V121.7z"/>
<g>
	<path class="st0" d="M98.7,127c-4.8,0-8.7-3.9-8.7-8.7V94.1c0-4.8,3.9-8.7,8.7-8.7s8.7,3.9,8.7,8.7v24.2
		C107.5,123.1,103.6,127,98.7,127z"/>
</g>
<g>
	<path class="st0" d="M161.6,127c-4.8,0-8.7-3.9-8.7-8.7V94.1c0-4.8,3.9-8.7,8.7-8.7c4.8,0,8.7,3.9,8.7,8.7v24.2
		C170.3,123.1,166.4,127,161.6,127z"/>
</g>
</svg>
