<?xml version="1.0" encoding="UTF-8"?>
<!-- Generator: Adobe Illustrator 27.5.0, SVG Export Plug-In . SVG Version: 6.00 Build 0)  -->
<svg xmlns="http://www.w3.org/2000/svg" xmlnsXlink="http://www.w3.org/1999/xlink" version="1.1" id="Warstwa_1" x="0px" y="0px" viewBox="0 0 64 64" style="enable-background:new 0 0 64 64;" xmlSpace="preserve">
<style type="text/css">
	.st0{fill:#CFD5DF;}
	.st1{fill:url(#SVGID_1_);}
</style>
<g>
	<path className="st0" d="M32.1,63.3c-0.6,0-1.1-0.1-1.6-0.3c-1.2-0.5-1.9-1.4-2.7-2.5l-4.4-5.9c-0.7-0.9-1.1-1.5-1.4-1.7   c-0.4-0.3-0.8-0.5-1.2-0.6c-0.3-0.1-1-0.1-2.2-0.1c-4.6,0-6.9,0-9.2-0.9c-3-1.2-5.3-3.6-6.5-6.5c-0.9-2.2-0.9-4.5-0.9-9.2V18.4   c0-5.6,0-8.3,1.3-10.9c1.2-2.3,3-4.1,5.3-5.3c2.6-1.3,5.4-1.3,10.9-1.3h25.4c5.6,0,8.3,0,10.9,1.3c2.3,1.2,4.1,3,5.3,5.3   c1.3,2.6,1.3,5.4,1.3,10.9v17.2c0,4.6,0,6.9-0.9,9.2c-1.2,3-3.6,5.3-6.5,6.5c-2.2,0.9-4.5,0.9-9.2,0.9c-1.2,0-1.9,0-2.2,0.1   c-0.5,0.1-0.9,0.3-1.2,0.6c-0.3,0.2-0.7,0.8-1.4,1.7l-4.4,5.9c-0.8,1.1-1.5,2-2.7,2.5C33.2,63.2,32.6,63.3,32.1,63.3z M33.2,57.7   L33.2,57.7L33.2,57.7z M19.4,6.9c-4.4,0-6.9,0-8.2,0.7C10,8.1,9.1,9.1,8.5,10.2c-0.7,1.3-0.7,3.7-0.7,8.2v17.2c0,3.7,0,5.7,0.5,6.9   c0.6,1.5,1.8,2.7,3.3,3.3c1.1,0.5,3.1,0.5,6.8,0.5c1.7,0,2.6,0,3.6,0.2c1.4,0.3,2.7,1,3.7,1.9c0.8,0.7,1.4,1.4,2.4,2.7c0,0,0,0,0,0   l3.9,5.2L36,51c1-1.3,1.5-2.1,2.4-2.7c1.1-0.9,2.4-1.5,3.7-1.9c1-0.2,1.9-0.2,3.6-0.2c3.7,0,5.7,0,6.9-0.5c1.5-0.6,2.7-1.8,3.3-3.3   c0.5-1.1,0.5-3.1,0.5-6.9V18.4c0-4.4,0-6.9-0.7-8.2C55,9.1,54.1,8.1,53,7.6c-1.3-0.7-3.7-0.7-8.2-0.7H19.4z"></path>
</g>
<linearGradient id="SVGID_1_" gradientUnits="userSpaceOnUse" x1="19.9735" y1="27.3034" x2="45.6745" y2="27.3034">
	<stop offset="0" style="stop-color:#1A57FE"></stop>
	<stop offset="1" style="stop-color:#FF33E1"></stop>
</linearGradient>
<path class="st1" d="M29,37.1c-0.8,0-1.6-0.3-2.1-0.9l-6-6c-1.2-1.2-1.2-3.1,0-4.3c1.2-1.2,3.1-1.2,4.3,0l3.9,3.9l11.5-11.5  c1.2-1.2,3.1-1.2,4.3,0c1.2,1.2,1.2,3.1,0,4.3L31.2,36.2C30.6,36.8,29.8,37.1,29,37.1z"></path>
</svg>
