<?xml version="1.0" encoding="UTF-8"?>
<!-- Generator: Adobe Illustrator 27.5.0, SVG Export Plug-In . SVG Version: 6.00 Build 0)  -->
<svg xmlns="http://www.w3.org/2000/svg" xmlnsXlink="http://www.w3.org/1999/xlink" version="1.1" id="Layer_1" x="0px" y="0px" viewBox="0 0 512 512" style="enable-background:new 0 0 512 512;" xmlSpace="preserve">
<style type="text/css">
	.st0{fill:#D1D7E0;}
	.st1{fill:url(#SVGID_1_);}
</style>
<path class="st0" d="M320,42.7c-23.5,0-42.7,19.1-42.7,42.7v309.3c0,64.7-52.7,117.3-117.3,117.3c-51.7,0-96.3-33.2-111.6-81.8  C18.3,410.5,0,377.3,0,341.3c0-18.9,5-37.1,14.6-53.3C5,271.7,0,253.6,0,234.7c0-33.5,16-64.9,42.7-84.9v-0.4  c0-40.5,28.3-74.4,66.2-83.2C117.6,28.3,151.6,0,192,0c25.5,0,48.4,11.2,64,28.9C271.6,11.2,294.5,0,320,0  c40.4,0,74.4,28.3,83.2,66.2c37.8,8.7,66.2,42.7,66.2,83.2v0.4c26.6,20,42.7,51.4,42.7,84.9c0,9.1-1.2,18.1-3.5,26.8  c-2.5,9.6-11.2,15.9-20.6,15.9c-1.8,0-3.7-0.2-5.5-0.7c-11.4-3-18.2-14.7-15.1-26.1c1.4-5.2,2.1-10.5,2.1-15.9  c0-22.8-12.6-44.1-32.9-55.5c-7.9-4.4-12.1-13.4-10.5-22.3c0.4-2.5,0.8-4.9,0.8-7.5c0-23.5-19.1-42.7-42.7-42.7  c-11.8,0-21.3-9.6-21.3-21.3C362.7,61.8,343.5,42.6,320,42.7L320,42.7z M234.7,85.3c0-23.5-19.1-42.7-42.7-42.7  s-42.7,19.1-42.7,42.7c0,11.8-9.5,21.3-21.3,21.3c-23.5,0-42.7,19.1-42.7,42.7c0,2.6,0.4,5.1,0.8,7.5c1.6,8.9-2.6,17.9-10.5,22.3  c-20.3,11.4-32.9,32.7-32.9,55.5c0,14.4,5,28.2,14.5,39.9c6.3,7.8,6.3,19,0,26.8c-9.5,11.7-14.5,25.5-14.5,39.9  c0,23.4,13,44.9,34.1,56.1c5.4,2.9,9.3,8,10.7,14c7.9,34.1,37.7,57.9,72.6,57.9c41.2,0,74.7-33.5,74.7-74.7V85.3z"></path>
<linearGradient id="SVGID_1_" gradientUnits="userSpaceOnUse" x1="298.6881" y1="399.3967" x2="512" y2="399.3967">
	<stop offset="0" style="stop-color:#1A57FE"></stop>
	<stop offset="1" style="stop-color:#FF33E1"></stop>
</linearGradient>
<path class="st1" d="M496.4,346.6c10,10,15.2,24.4,15.6,37.4c-0.3,13.1-5.5,27.3-15.4,37.3l-55,53.8c-4.1,4.1-9.5,6.1-14.9,6.1  c-5.5,0-11.1-2.2-15.3-6.4c-8.2-8.4-8.1-21.9,0.3-30.2l40.1-39.3h-46.5c-35.3,0-64,28.7-64,64v21.3c0,11.8-9.5,21.3-21.3,21.3  c-11.8,0-21.3-9.5-21.3-21.3v-21.3c0-58.8,47.9-106.7,106.7-106.7h46.5l-40.1-39.3c-8.4-8.3-8.6-21.8-0.3-30.2  c8.3-8.4,21.8-8.6,30.2-0.3L496.4,346.6L496.4,346.6z"></path>
</svg>
