<?xml version="1.0" encoding="UTF-8"?>
<!-- Generator: Adobe Illustrator 27.5.0, SVG Export Plug-In . SVG Version: 6.00 Build 0)  -->
<svg xmlns="http://www.w3.org/2000/svg" xmlnsXlink="http://www.w3.org/1999/xlink" version="1.1" id="Layer_1" x="0px" y="0px" viewBox="0 0 512 512" style="enable-background:new 0 0 512 512;" xml:space="preserve">
<style type="text/css">
	.st0{fill:#D1D7E0;}
	.st1{fill:url(#SVGID_1_);}
</style>
<path class="st0" d="M10.3,172.5l210.4,126.2c10.9,6.5,23.1,9.8,35.3,9.8c12.2,0,24.4-3.3,35.3-9.8l210.4-126.2  c6.4-3.9,10.3-10.8,10.3-18.3c0-7.5-3.9-14.4-10.3-18.3L291.3,9.7c-21.8-13.1-48.8-13.1-70.5,0L10.3,136C3.9,139.8,0,146.8,0,154.2  S3.9,168.7,10.3,172.5L10.3,172.5z M242.7,46.3L242.7,46.3c8.2-4.9,18.4-4.9,26.6,0l179.9,107.9L269.3,262.2  c-8.2,4.9-18.4,4.9-26.6,0l-179.9-108L242.7,46.3z M274.3,496.8c-4,6.7-11.1,10.3-18.3,10.3c-3.7,0-7.5-1-11-3.1L10.3,363.3  C0.2,357.2-3,344.1,3,334c6-10.1,19.1-13.4,29.3-7.3L267,467.5C277.1,473.6,280.3,486.7,274.3,496.8z M508.9,236.6  c6.1,10.1,2.8,23.2-7.3,29.3L267,406.7c-3.4,2-7.2,3.1-11,3.1s-7.6-1-11-3.1L10.3,265.9C0.2,259.8-3,246.7,3,236.6  c6-10.1,19.1-13.4,29.3-7.3L256,363.5l223.7-134.2C489.8,223.2,502.9,226.5,508.9,236.6L508.9,236.6z"></path>
<linearGradient id="SVGID_1_" gradientUnits="userSpaceOnUse" x1="341.3333" y1="426.6667" x2="512" y2="426.6667">
	<stop offset="0" style="stop-color:#1A57FE"></stop>
	<stop offset="1" style="stop-color:#FF33E1"></stop>
</linearGradient>
<path class="st1" d="M512,426.7c0,11.8-9.6,21.3-21.3,21.3H448v42.7c0,11.8-9.6,21.3-21.3,21.3s-21.3-9.5-21.3-21.3V448h-42.7  c-11.8,0-21.3-9.5-21.3-21.3c0-11.8,9.6-21.3,21.3-21.3h42.7v-42.7c0-11.8,9.6-21.3,21.3-21.3s21.3,9.5,21.3,21.3v42.7h42.7  C502.4,405.3,512,414.9,512,426.7z"></path>
</svg>
