<?xml version="1.0" encoding="UTF-8"?>
<!-- Generator: Adobe Illustrator 27.5.0, SVG Export Plug-In . SVG Version: 6.00 Build 0)  -->
<svg xmlns="http://www.w3.org/2000/svg" xmlnsXlink="http://www.w3.org/1999/xlink" version="1.1" id="Warstwa_1" x="0px" y="0px" viewBox="0 0 55.5 64" style="enable-background:new 0 0 55.5 64;" xml:space="preserve">
<style type="text/css">
	.st0{fill:#CFD5DF;}
	.st1{fill:url(#SVGID_1_);}
</style>
<g>
	<path class="st0" d="M26.4,63.8h-9.2c-5.3,0-7.9,0-10.4-1.3c-2.2-1.1-3.9-2.9-5-5C0.5,55,0.5,52.4,0.5,47.1V17.1   c0-5.3,0-7.9,1.3-10.4c1.1-2.2,2.9-3.9,5-5c2.5-1.3,5.1-1.3,10.4-1.3h18.4c5.3,0,7.9,0,10.4,1.3c2.2,1.1,3.9,2.9,5,5   c1.3,2.5,1.3,5.1,1.3,10.4v16.4c0,1.6-1.3,2.9-2.9,2.9s-2.9-1.3-2.9-2.9V17.1c0-4.2,0-6.6-0.6-7.8c-0.6-1.1-1.4-2-2.5-2.5   c-1.2-0.6-3.6-0.6-7.8-0.6H17.2c-4.2,0-6.6,0-7.8,0.6c-1.1,0.6-2,1.4-2.5,2.5c-0.6,1.2-0.6,3.6-0.6,7.8v29.9c0,4.2,0,6.6,0.6,7.8   c0.6,1.1,1.4,2,2.5,2.5C10.6,58,13,58,17.2,58h9.2c1.6,0,2.9,1.3,2.9,2.9S28,63.8,26.4,63.8z"></path>
</g>
<linearGradient id="SVGID_1_" gradientUnits="userSpaceOnUse" x1="30.7475" y1="51.524" x2="55.2223" y2="51.524">
	<stop offset="0" style="stop-color:#1A57FE"></stop>
	<stop offset="1" style="stop-color:#FF33E1"></stop>
</linearGradient>
<path class="st1" d="M39.4,60.9c-0.7,0-1.5-0.3-2-0.8l-5.8-5.8c-1.1-1.1-1.1-2.9,0-4.1c1.1-1.1,2.9-1.1,4.1,0l3.7,3.7L50.3,43  c1.1-1.1,2.9-1.1,4.1,0c1.1,1.1,1.1,2.9,0,4.1l-13,13C40.9,60.6,40.1,60.9,39.4,60.9z"></path>
</svg>
