<?xml version="1.0" encoding="UTF-8"?>
<!-- Generator: Adobe Illustrator 27.5.0, SVG Export Plug-In . SVG Version: 6.00 Build 0)  -->
<svg xmlns="http://www.w3.org/2000/svg" xmlnsXlink="http://www.w3.org/1999/xlink" version="1.1" id="Layer_1" x="0px" y="0px" viewBox="0 0 512 512" style="enable-background:new 0 0 512 512;" xml:space="preserve">
<style type="text/css">
	.st0{fill:#D1D7E0;}
	.st1{fill:url(#SVGID_1_);}
	.st2{fill:url(#SVGID_00000026866490983680874020000001668970240510996128_);}
</style>
<path class="st0" d="M298.7,490.7c0,11.7-9.6,21.3-21.3,21.3s-21.3-9.6-21.3-21.3c0-58.9-47.8-106.7-106.7-106.7  S42.7,431.8,42.7,490.7c0,11.7-9.6,21.3-21.3,21.3S0,502.4,0,490.7c0-82.3,67-149.3,149.3-149.3S298.7,408.3,298.7,490.7z   M512,106.7v170.7c0,58.9-47.8,106.7-106.7,106.7H320c-11.7,0-21.3-9.6-21.3-21.3c0-11.7,9.6-21.3,21.3-21.3h85.3  c35.2,0,64-28.8,64-64V106.7c0-35.2-28.8-64-64-64H201.8c-22.8,0-43.9,12.4-55.5,32c-6,10.2-19,13.7-29.2,7.9  c-10.2-6-13.7-19-7.7-29.2C128.6,20.5,164.1,0,201.8,0h203.5C464.2,0,512,47.8,512,106.7z"></path>
<linearGradient id="SVGID_1_" gradientUnits="userSpaceOnUse" x1="64" y1="213.3333" x2="234.6667" y2="213.3333">
	<stop offset="0" style="stop-color:#1A57FE"></stop>
	<stop offset="1" style="stop-color:#FF33E1"></stop>
</linearGradient>
<path class="st1" d="M149.3,128c-47.1,0-85.3,38.2-85.3,85.3s38.2,85.3,85.3,85.3s85.3-38.2,85.3-85.3S196.5,128,149.3,128z   M149.3,256c-23.5,0-42.7-19.2-42.7-42.7s19.2-42.7,42.7-42.7c23.5,0,42.7,19.2,42.7,42.7S172.8,256,149.3,256z"></path>
<linearGradient id="SVGID_00000142153028125052033330000012929143741521254022_" gradientUnits="userSpaceOnUse" x1="255.6203" y1="203.0933" x2="426.6667" y2="203.0933">
	<stop offset="0" style="stop-color:#1A57FE"></stop>
	<stop offset="1" style="stop-color:#FF33E1"></stop>
</linearGradient>
<path style="fill:url(#SVGID_00000142153028125052033330000012929143741521254022_);" d="M291.6,233l62.3-62.3H320  c-11.7,0-21.3-9.6-21.3-21.3S308.3,128,320,128h64c23.5,0,42.7,19.2,42.7,42.7v64c0,11.7-9.6,21.3-21.3,21.3s-21.3-9.6-21.3-21.3  v-33.9L321.7,263c-9.8,9.8-23,15.1-36.5,15.1c-4.7,0-9.4-0.6-14.1-1.9c-11.3-3.2-17.9-14.9-14.7-26.2c3.2-11.3,14.9-17.9,26.5-14.7  C285.4,235.9,288.9,235.7,291.6,233z"></path>
</svg>
